<svg width="1371" height="311" xmlns="http://www.w3.org/2000/svg" xmlns:xlink="http://www.w3.org/1999/xlink" xml:space="preserve" overflow="hidden"><defs><clipPath id="clip0"><rect x="517" y="342" width="1371" height="311"/></clipPath></defs><g clip-path="url(#clip0)" transform="translate(-517 -342)"><path d="M1240.77 553.037C1525.31 552.127 1797.23 568.353 1861.05 591.884 1875.52 597.222 1876.68 600.755 1865.45 605.291 1831.32 619.065 1742.58 628.996 1551.29 640.441 1502.89 643.327 1139.38 646.292 1063.58 644.409 864.256 639.46 688.04 623.044 642.513 605.191 632.42 601.234 632.457 600.131 642.865 594.715 680.566 575.089 859.167 559.999 1118.62 554.505 1159.21 553.647 1200.12 553.167 1240.77 553.037ZM1245.4 572.245C1129.22 572.726 1015.69 578.755 981.801 590.012 971.751 593.355 966.817 599.897 970.198 605.402 976.59 615.823 1033.67 624.136 1128.03 628.405 1207.11 631.982 1400.63 629.341 1455.2 623.936 1525.19 617.015 1545.43 612.044 1545.43 601.747 1545.43 594.937 1540.55 591.605 1524.93 587.771 1480.42 576.833 1361.59 571.765 1245.4 572.245Z" fill="#262626" fill-rule="evenodd"/><path d="M1290.83 581.18C1400.75 582.269 1503.71 588.286 1530.91 598.55 1537.16 600.904 1536.8 601.339 1525.93 604.53 1511.99 608.614 1478.42 612.686 1426.36 616.58 1371.2 620.708 1200.54 622.482 1140.82 619.548 1066.29 615.899 1013.9 610.142 987.324 602.689 979.041 600.369 986.224 597.289 1009.03 593.373 1064.05 583.929 1180.92 580.091 1290.83 581.18Z" fill="#262626" fill-rule="evenodd"/><path d="M546.266 342.422C557.202 344.423 561.765 353.519 559.386 369.143 558.337 376.037 556.15 382.485 554.525 383.473 552.9 384.461 543.792 385.894 534.285 386.643L517 388 517 373.551C517 353.587 521.551 344.967 533.227 342.807 538.268 341.876 542.621 341.755 546.266 342.422Z" fill="#FFFFFF" fill-rule="evenodd"/><path d="M538.874 397.01C541.175 397.177 543.707 399.369 544.627 403.453 550.204 428.203 551.958 457.962 551.978 528.088L552 608 543.607 608C538.992 608 533.635 606.083 531.703 603.744 529.15 600.652 528.365 581.267 528.824 532.632 529.172 495.857 528.442 452.908 527.204 437.18 525.2 411.732 525.478 408.585 529.727 408.585 532.557 408.585 534.501 406.202 534.501 402.721 534.501 398.703 536.572 396.844 538.874 397.01Z" fill="#FFFFFF" fill-rule="evenodd"/><path d="M1221.83 544.096C1391.97 543.253 1568.53 547.948 1706.71 559.409 1828.98 569.556 1885.52 581.558 1887.85 597.887 1889.36 608.454 1879.23 615.056 1851.48 621.604 1814.78 630.26 1800.37 632.148 1701.65 641.213 1604.01 650.178 1533.05 652.143 1284.72 652.795 1142.08 653.159 1018.12 653.027 1009.25 652.497 1000.39 651.967 966.098 650.145 933.057 648.445 766.21 639.866 654.333 625.91 634.477 611.192 624.205 603.574 623.168 594.509 631.916 588.8 672.498 562.295 938.254 545.502 1221.83 544.096ZM1240.73 553.317C1200.06 553.446 1159.14 553.922 1118.52 554.772 858.955 560.215 680.272 575.165 642.554 594.608 632.141 599.974 632.104 601.067 642.202 604.987 687.75 622.675 864.046 638.938 1063.47 643.841 1139.3 645.707 1502.97 642.77 1551.4 639.91 1742.77 628.571 1831.55 618.733 1865.7 605.086 1876.93 600.593 1875.78 597.093 1861.3 591.804 1797.45 568.492 1525.41 552.416 1240.73 553.317Z" fill="#FFFFFF" fill-rule="evenodd"/><path d="M1245.12 572.031C1361.25 571.549 1480.02 576.633 1524.51 587.604 1540.12 591.449 1545 594.791 1545 601.621 1545 611.949 1524.77 616.935 1454.81 623.876 1400.27 629.297 1206.85 631.946 1127.81 628.358 1033.5 624.077 976.448 615.738 970.059 605.287 966.68 599.765 971.611 593.204 981.656 589.85 1015.53 578.561 1129 572.514 1245.12 572.031ZM1290.94 581.077C1181.06 579.986 1064.23 583.831 1009.23 593.293 986.432 597.217 979.252 600.302 987.532 602.627 1014.09 610.094 1066.47 615.861 1140.98 619.516 1200.68 622.456 1371.29 620.679 1426.43 616.543 1478.47 612.642 1512.03 608.562 1525.97 604.471 1536.83 601.274 1537.19 600.838 1530.95 598.48 1503.76 588.196 1400.82 582.169 1290.94 581.077Z" fill="#FFFFFF" fill-rule="evenodd"/></g></svg>